<?xml version="1.0" encoding="utf-8"?>
<!-- Generator: Adobe Illustrator 23.0.2, SVG Export Plug-In . SVG Version: 6.00 Build 0)  -->
<svg version="1.1" id="Layer_1" xmlns="http://www.w3.org/2000/svg" xmlns:xlink="http://www.w3.org/1999/xlink" x="0px" y="0px"
	 viewBox="0 0 1800 1800" style="enable-background:new 0 0 1800 1800;" xml:space="preserve">
<style type="text/css">
	.st0{fill:#333333;}
	.st1{fill:#C1272D;}
	.st2{fill:#FFFFFF;}
	.st3{fill:#ED1C24;}
	.st4{clip-path:url(#SVGID_2_);}
	.st5{clip-path:url(#SVGID_4_);}
	.st6{clip-path:url(#SVGID_6_);}
</style>
<g>
	<g>
		<path d="M1211.04,413.69c-36.29-70.46-83.95-126.68-143.03-168.66c-59.07-41.97-126.43-72.02-202.08-90.16
			c-75.66-18.12-152.35-27.21-230.07-27.21H237.9v1100.6h348.39V998.19h-88.78V354.63h132.14c45.57,0,89.9,5.19,132.9,15.53
			c43.01,10.38,81.35,27.74,115.05,52.09c33.66,24.36,60.62,57,80.83,97.93c20.19,40.95,30.29,92.49,30.29,154.67
			c0,61.16-10.1,112.46-30.29,153.89c-14.53,29.82-32.56,55.35-54.06,76.59v280.83c60.78-21.1,116.11-50.86,165.98-89.26
			c58.54-45.08,105.71-102.6,141.45-172.55c35.78-69.95,53.65-153.12,53.65-249.5C1265.45,571.23,1247.28,484.18,1211.04,413.69z
			 M623.43,998.19h-7.9v230.07h32.75c75.65,0,150.27-10.63,223.86-31.87c1-0.29,2-0.58,2.99-0.88V930.04
			c-33.13,23.94-71.16,41.21-114.12,51.82C716.95,992.75,671.08,998.19,623.43,998.19z"/>
	</g>
	<g>
		<path d="M1252.81,805.75c-1.53,7.38-3.19,14.62-4.99,21.82C1249.66,820.42,1251.33,813.13,1252.81,805.75z M1246.02,506.92h-0.09
			c2.43,9.4,4.68,18.98,6.66,28.79C1250.65,525.91,1248.45,516.33,1246.02,506.92z"/>
	</g>
	<g>
		<path d="M1239.55,855.99c0.05,0.03,0.1,0.06,0.15,0.09c0.64-2.01,1.26-4.03,1.86-6.07c0.27-0.81,0.5-1.66,0.77-2.47
			c0.9-3.1,1.8-6.21,2.65-9.31c0.99-3.56,1.94-7.11,2.84-10.66c1.8-7.2,3.46-14.44,4.99-21.82c0.76-3.69,1.53-7.38,2.2-11.11
			c0.54-2.93,1.08-5.89,1.58-8.86c0.13-0.81,0.27-1.62,0.4-2.43c0.37-2.24,0.73-4.5,1.07-6.76
			C1253.76,804.39,1247.59,830.86,1239.55,855.99z M1588.65,857.77c-36.42-70.4-83.94-126.58-143.01-168.55
			c-46.09-32.68-97.16-58.13-153.21-76.34c1.51,20.05,2.26,40.72,2.26,61.97c0,70.76-9.49,135.8-28.16,193.29l-1.83,5.62
			c29.29,23.49,52.98,53.69,71.23,90.61c20.21,40.86,30.43,92.38,30.43,154.56c0,61.29-10.22,112.59-30.43,153.9
			c-20.21,41.52-47.08,74.61-80.83,99.48c-33.76,24.88-72.62,42.86-116.59,53.75c-43.97,10.88-89.94,16.21-137.46,16.21H875.13
			V798.7h64.51c13.17-34.23,19.83-75.81,19.83-123.85c0-38.99-4.24-73.51-12.63-103.11H615.53v1100.6h410.39
			c75.5,0,150.12-10.66,223.85-31.76c73.51-21.32,139.46-54.41,198.09-99.49c58.63-45.08,105.71-102.6,141.46-172.55
			c35.75-69.95,53.74-153.23,53.74-249.61C1643.06,1015.44,1624.85,928.39,1588.65,857.77z M988.83,674.78
			c0-25.21-1.72-48.7-5.1-70.41c3.32,21.74,4.98,45.23,4.98,70.48c0,39.32-4.16,74.56-12.51,105.71
			C984.67,749.47,988.83,714.21,988.83,674.78z"/>
	</g>
	<g>
		
			<rect x="524.85" y="1260.33" transform="matrix(-1 -4.457025e-11 4.457025e-11 -1 1108.3058 2679.1426)" width="58.61" height="158.48"/>
		
			<rect x="429.34" y="1260.33" transform="matrix(-1 -4.457025e-11 4.457025e-11 -1 917.2834 2679.1426)" width="58.61" height="158.48"/>
		<polygon points="237.96,1364.14 237.96,1545.44 392.43,1545.44 392.43,1672.34 583.44,1672.34 583.44,1453.93 296.57,1453.93 
			296.57,1422.74 392.54,1422.74 392.54,1364.14 		"/>
		
			<rect x="333" y="1260.33" transform="matrix(-1 -4.480961e-11 4.480961e-11 -1 725.4376 2588.5837)" width="59.43" height="67.92"/>
		
			<rect x="237.9" y="1260.33" transform="matrix(-1 -4.459556e-11 4.459556e-11 -1 535.2388 2588.5837)" width="59.43" height="67.92"/>
	</g>
	<rect x="534.68" y="571.74" width="340.57" height="226.96"/>
	<rect x="156.94" y="127.67" width="340.57" height="226.96"/>
</g>
</svg>
