{
    "accessors" : [
        {
            "bufferView" : 0,
            "componentType" : 5123,
            "count" : 744,
            "max" : [
                383
            ],
            "min" : [
                0
            ],
            "type" : "SCALAR"
        },
        {
            "bufferView" : 1,
            "componentType" : 5126,
            "count" : 384,
            "max" : [
                1.0,
                1.0,
                1.0
            ],
            "min" : [
                -1.0,
                -1.0,
                -1.0
            ],
            "type" : "VEC3"
        },
        {
            "bufferView" : 2,
            "componentType" : 5126,
            "count" : 384,
            "max" : [
                0.9951848387718201,
                1.0,
                0.9951848387718201
            ],
            "min" : [
                -0.9951848387718201,
                -1.0,
                -0.9951848387718201
            ],
            "type" : "VEC3"
        },
        {
            "bufferView" : 3,
            "componentType" : 5123,
            "count" : 744,
            "max" : [
                383
            ],
            "min" : [
                0
            ],
            "type" : "SCALAR"
        },
        {
            "bufferView" : 4,
            "componentType" : 5126,
            "count" : 384,
            "max" : [
                1.0,
                1.0,
                1.0
            ],
            "min" : [
                -1.0,
                -1.0,
                -1.0
            ],
            "type" : "VEC3"
        },
        {
            "bufferView" : 5,
            "componentType" : 5126,
            "count" : 384,
            "max" : [
                0.9951848387718201,
                1.0,
                0.9951848387718201
            ],
            "min" : [
                -0.9951848387718201,
                -1.0,
                -0.9951848387718201
            ],
            "type" : "VEC3"
        },
        {
            "bufferView" : 6,
            "componentType" : 5123,
            "count" : 576,
            "max" : [
                383
            ],
            "min" : [
                0
            ],
            "type" : "SCALAR"
        },
        {
            "bufferView" : 7,
            "componentType" : 5126,
            "count" : 384,
            "max" : [
                0.23032736778259277,
                0.19400179386138916,
                0.2303272932767868
            ],
            "min" : [
                -0.23032726347446442,
                -0.16350769996643066,
                -0.23032733798027039
            ],
            "type" : "VEC3"
        },
        {
            "bufferView" : 8,
            "componentType" : 5126,
            "count" : 384,
            "max" : [
                0.9659261107444763,
                0.3148423433303833,
                0.9659262299537659
            ],
            "min" : [
                -0.9659262895584106,
                -0.17423948645591736,
                -0.9659261703491211
            ],
            "type" : "VEC3"
        },
        {
            "bufferView" : 9,
            "componentType" : 5123,
            "count" : 2880,
            "max" : [
                1983
            ],
            "min" : [
                0
            ],
            "type" : "SCALAR"
        },
        {
            "bufferView" : 10,
            "componentType" : 5126,
            "count" : 1984,
            "max" : [
                1.000000238418579,
                1.0,
                1.0000003576278687
            ],
            "min" : [
                -0.9999998211860657,
                -1.0,
                -1.0
            ],
            "type" : "VEC3"
        },
        {
            "bufferView" : 11,
            "componentType" : 5126,
            "count" : 1984,
            "max" : [
                0.9904382228851318,
                0.99513840675354,
                0.9904382824897766
            ],
            "min" : [
                -0.9904382228851318,
                -0.99513840675354,
                -0.9904384016990662
            ],
            "type" : "VEC3"
        },
        {
            "bufferView" : 12,
            "componentType" : 5123,
            "count" : 2880,
            "max" : [
                1983
            ],
            "min" : [
                0
            ],
            "type" : "SCALAR"
        },
        {
            "bufferView" : 13,
            "componentType" : 5126,
            "count" : 1984,
            "max" : [
                0.9999999403953552,
                1.0,
                1.0
            ],
            "min" : [
                -1.000000238418579,
                -1.0,
                -0.9999995231628418
            ],
            "type" : "VEC3"
        },
        {
            "bufferView" : 14,
            "componentType" : 5126,
            "count" : 1984,
            "max" : [
                0.9904382824897766,
                0.99513840675354,
                0.9904382228851318
            ],
            "min" : [
                -0.9904382228851318,
                -0.99513840675354,
                -0.9904387593269348
            ],
            "type" : "VEC3"
        },
        {
            "bufferView" : 15,
            "componentType" : 5123,
            "count" : 1806,
            "max" : [
                1535
            ],
            "min" : [
                0
            ],
            "type" : "SCALAR"
        },
        {
            "bufferView" : 16,
            "componentType" : 5126,
            "count" : 1536,
            "max" : [
                1.2495980262756348,
                1.4034929275512695,
                0.18078729510307312
            ],
            "min" : [
                -1.2453230619430542,
                -0.14005739986896515,
                -1.5547336339950562
            ],
            "type" : "VEC3"
        },
        {
            "bufferView" : 17,
            "componentType" : 5126,
            "count" : 1536,
            "max" : [
                0.9887731671333313,
                0.9952797889709473,
                0.9996398091316223
            ],
            "min" : [
                -0.9935136437416077,
                -0.9995871782302856,
                -0.9956730008125305
            ],
            "type" : "VEC3"
        },
        {
            "bufferView" : 18,
            "componentType" : 5123,
            "count" : 924,
            "max" : [
                579
            ],
            "min" : [
                0
            ],
            "type" : "SCALAR"
        },
        {
            "bufferView" : 19,
            "componentType" : 5126,
            "count" : 580,
            "max" : [
                0.46816086769104004,
                0.24441556632518768,
                -0.06320583820343018
            ],
            "min" : [
                0.02802419662475586,
                -0.01702713966369629,
                -0.9559668302536011
            ],
            "type" : "VEC3"
        },
        {
            "bufferView" : 20,
            "componentType" : 5126,
            "count" : 580,
            "max" : [
                0.95372074842453,
                0.9951775074005127,
                0.8378359079360962
            ],
            "min" : [
                -0.9622126817703247,
                -0.9874646663665771,
                -0.8422715663909912
            ],
            "type" : "VEC3"
        },
        {
            "bufferView" : 21,
            "componentType" : 5123,
            "count" : 2880,
            "max" : [
                1983
            ],
            "min" : [
                0
            ],
            "type" : "SCALAR"
        },
        {
            "bufferView" : 22,
            "componentType" : 5126,
            "count" : 1984,
            "max" : [
                0.9999999403953552,
                1.0,
                1.0
            ],
            "min" : [
                -1.000000238418579,
                -1.0,
                -0.9999995231628418
            ],
            "type" : "VEC3"
        },
        {
            "bufferView" : 23,
            "componentType" : 5126,
            "count" : 1984,
            "max" : [
                0.9904382824897766,
                0.99513840675354,
                0.9904382228851318
            ],
            "min" : [
                -0.9904382228851318,
                -0.99513840675354,
                -0.9904387593269348
            ],
            "type" : "VEC3"
        },
        {
            "bufferView" : 24,
            "componentType" : 5123,
            "count" : 348,
            "max" : [
                215
            ],
            "min" : [
                0
            ],
            "type" : "SCALAR"
        },
        {
            "bufferView" : 25,
            "componentType" : 5126,
            "count" : 216,
            "max" : [
                0.8602698445320129,
                1.0,
                0.8602698445320129
            ],
            "min" : [
                -0.8602698445320129,
                -1.0,
                -0.8602698445320129
            ],
            "type" : "VEC3"
        },
        {
            "bufferView" : 26,
            "componentType" : 5126,
            "count" : 216,
            "max" : [
                0.9638944864273071,
                0.9999999403953552,
                0.9638945460319519
            ],
            "min" : [
                -0.9638945460319519,
                -1.0,
                -0.9638944864273071
            ],
            "type" : "VEC3"
        }
    ],
    "asset" : {
        "generator" : "Khronos Blender glTF 2.0 exporter",
        "version" : "2.0"
    },
    "bufferViews" : [
        {
            "buffer" : 0,
            "byteLength" : 1488,
            "byteOffset" : 0,
            "target" : 34963
        },
        {
            "buffer" : 0,
            "byteLength" : 4608,
            "byteOffset" : 1488,
            "target" : 34962
        },
        {
            "buffer" : 0,
            "byteLength" : 4608,
            "byteOffset" : 6096,
            "target" : 34962
        },
        {
            "buffer" : 0,
            "byteLength" : 1488,
            "byteOffset" : 10704,
            "target" : 34963
        },
        {
            "buffer" : 0,
            "byteLength" : 4608,
            "byteOffset" : 12192,
            "target" : 34962
        },
        {
            "buffer" : 0,
            "byteLength" : 4608,
            "byteOffset" : 16800,
            "target" : 34962
        },
        {
            "buffer" : 0,
            "byteLength" : 1152,
            "byteOffset" : 21408,
            "target" : 34963
        },
        {
            "buffer" : 0,
            "byteLength" : 4608,
            "byteOffset" : 22560,
            "target" : 34962
        },
        {
            "buffer" : 0,
            "byteLength" : 4608,
            "byteOffset" : 27168,
            "target" : 34962
        },
        {
            "buffer" : 0,
            "byteLength" : 5760,
            "byteOffset" : 31776,
            "target" : 34963
        },
        {
            "buffer" : 0,
            "byteLength" : 23808,
            "byteOffset" : 37536,
            "target" : 34962
        },
        {
            "buffer" : 0,
            "byteLength" : 23808,
            "byteOffset" : 61344,
            "target" : 34962
        },
        {
            "buffer" : 0,
            "byteLength" : 5760,
            "byteOffset" : 85152,
            "target" : 34963
        },
        {
            "buffer" : 0,
            "byteLength" : 23808,
            "byteOffset" : 90912,
            "target" : 34962
        },
        {
            "buffer" : 0,
            "byteLength" : 23808,
            "byteOffset" : 114720,
            "target" : 34962
        },
        {
            "buffer" : 0,
            "byteLength" : 3612,
            "byteOffset" : 138528,
            "target" : 34963
        },
        {
            "buffer" : 0,
            "byteLength" : 18432,
            "byteOffset" : 142140,
            "target" : 34962
        },
        {
            "buffer" : 0,
            "byteLength" : 18432,
            "byteOffset" : 160572,
            "target" : 34962
        },
        {
            "buffer" : 0,
            "byteLength" : 1848,
            "byteOffset" : 179004,
            "target" : 34963
        },
        {
            "buffer" : 0,
            "byteLength" : 6960,
            "byteOffset" : 180852,
            "target" : 34962
        },
        {
            "buffer" : 0,
            "byteLength" : 6960,
            "byteOffset" : 187812,
            "target" : 34962
        },
        {
            "buffer" : 0,
            "byteLength" : 5760,
            "byteOffset" : 194772,
            "target" : 34963
        },
        {
            "buffer" : 0,
            "byteLength" : 23808,
            "byteOffset" : 200532,
            "target" : 34962
        },
        {
            "buffer" : 0,
            "byteLength" : 23808,
            "byteOffset" : 224340,
            "target" : 34962
        },
        {
            "buffer" : 0,
            "byteLength" : 696,
            "byteOffset" : 248148,
            "target" : 34963
        },
        {
            "buffer" : 0,
            "byteLength" : 2592,
            "byteOffset" : 248844,
            "target" : 34962
        },
        {
            "buffer" : 0,
            "byteLength" : 2592,
            "byteOffset" : 251436,
            "target" : 34962
        }
    ],
    "buffers" : [
        {
            "byteLength" : 254028,
            "uri" : "KingDongledorf.bin"
        }
    ],
    "meshes" : [
        {
            "name" : "Cylinder.003",
            "primitives" : [
                {
                    "attributes" : {
                        "NORMAL" : 2,
                        "POSITION" : 1
                    },
                    "indices" : 0
                }
            ]
        },
        {
            "name" : "Cylinder.001",
            "primitives" : [
                {
                    "attributes" : {
                        "NORMAL" : 5,
                        "POSITION" : 4
                    },
                    "indices" : 3
                }
            ]
        },
        {
            "name" : "Cylinder.002",
            "primitives" : [
                {
                    "attributes" : {
                        "NORMAL" : 8,
                        "POSITION" : 7
                    },
                    "indices" : 6
                }
            ]
        },
        {
            "name" : "Sphere.001",
            "primitives" : [
                {
                    "attributes" : {
                        "NORMAL" : 11,
                        "POSITION" : 10
                    },
                    "indices" : 9
                }
            ]
        },
        {
            "name" : "Sphere.004",
            "primitives" : [
                {
                    "attributes" : {
                        "NORMAL" : 14,
                        "POSITION" : 13
                    },
                    "indices" : 12
                }
            ]
        },
        {
            "name" : "Icosphere.003",
            "primitives" : [
                {
                    "attributes" : {
                        "NORMAL" : 17,
                        "POSITION" : 16
                    },
                    "indices" : 15
                }
            ]
        },
        {
            "name" : "Plane.001",
            "primitives" : [
                {
                    "attributes" : {
                        "NORMAL" : 20,
                        "POSITION" : 19
                    },
                    "indices" : 18
                }
            ]
        },
        {
            "name" : "Sphere.003",
            "primitives" : [
                {
                    "attributes" : {
                        "NORMAL" : 23,
                        "POSITION" : 22
                    },
                    "indices" : 21
                }
            ]
        },
        {
            "name" : "Cylinder",
            "primitives" : [
                {
                    "attributes" : {
                        "NORMAL" : 26,
                        "POSITION" : 25
                    },
                    "indices" : 24
                }
            ]
        }
    ],
    "nodes" : [
        {
            "name" : "Area",
            "rotation" : [
                0.4441414773464203,
                0.36763352155685425,
                0.203570157289505,
                0.7912920713424683
            ],
            "translation" : [
                0.11249113082885742,
                6.106540203094482,
                9.010791778564453
            ]
        },
        {
            "mesh" : 5,
            "name" : "Beard",
            "scale" : [
                -0.45719677209854126,
                -0.6360723376274109,
                -0.5389758348464966
            ],
            "translation" : [
                0.0,
                1.1473628282546997,
                -0.0584050714969635
            ]
        },
        {
            "name" : "Camera",
            "rotation" : [
                0.6740641593933105,
                0.015508139505982399,
                -0.014157428406178951,
                0.7383742928504944
            ],
            "scale" : [
                1.0,
                0.9999999403953552,
                0.9999999403953552
            ],
            "translation" : [
                0.16190341114997864,
                0.941370964050293,
                6.421160697937012
            ]
        },
        {
            "mesh" : 2,
            "name" : "Crown",
            "rotation" : [
                -0.04003782197833061,
                -0.006795252673327923,
                -0.0015139213064685464,
                0.9991739392280579
            ],
            "scale" : [
                1.984398603439331,
                1.0484248399734497,
                1.9843984842300415
            ],
            "translation" : [
                -2.012523765415608e-07,
                1.5822551250457764,
                -0.029017310589551926
            ]
        },
        {
            "mesh" : 1,
            "name" : "Cylinder.002",
            "rotation" : [
                0.13778330385684967,
                -0.9830509424209595,
                -0.05021517351269722,
                0.1100229024887085
            ],
            "scale" : [
                -0.32443052530288696,
                -1.5001641511917114,
                -0.32443058490753174
            ],
            "translation" : [
                0.5621614456176758,
                -1.6283047199249268,
                -0.1289631575345993
            ]
        },
        {
            "mesh" : 0,
            "name" : "Cylinder.003",
            "rotation" : [
                0.13778333365917206,
                -0.9830508828163147,
                -0.05021510273218155,
                0.11002331227064133
            ],
            "scale" : [
                -0.32443055510520935,
                -1.500164270401001,
                -0.3244306147098541
            ],
            "translation" : [
                0.562161922454834,
                -1.6283044815063477,
                -0.1289631575345993
            ]
        },
        {
            "mesh" : 6,
            "name" : "Eyebrows",
            "rotation" : [
                0.7071067690849304,
                -0.00028580616344697773,
                -0.7071067094802856,
                -0.00028581192600540817
            ],
            "scale" : [
                0.528376042842865,
                0.6524873971939087,
                0.36439478397369385
            ],
            "translation" : [
                -0.0007631685584783554,
                1.3810120820999146,
                0.5076851844787598
            ]
        },
        {
            "mesh" : 3,
            "name" : "Head",
            "scale" : [
                0.49794912338256836,
                0.49794912338256836,
                0.49794912338256836
            ],
            "translation" : [
                0.0,
                1.1429980993270874,
                -0.0
            ]
        },
        {
            "children" : [
                4
            ],
            "mesh" : 7,
            "name" : "Left Shoulder",
            "rotation" : [
                1.355463944448102e-15,
                -2.4750173466259184e-08,
                0.18420948088169098,
                0.9828870892524719
            ],
            "scale" : [
                0.21503621339797974,
                0.21503621339797974,
                0.21503621339797974
            ],
            "translation" : [
                0.6008415222167969,
                0.3395749032497406,
                0.0026182946749031544
            ]
        },
        {
            "children" : [
                5
            ],
            "mesh" : 4,
            "name" : "Right Shoulder",
            "rotation" : [
                -0.0009601815254427493,
                -0.0024043533485382795,
                -0.4703948199748993,
                0.8824523091316223
            ],
            "scale" : [
                0.21503621339797974,
                0.21503621339797974,
                0.21503619849681854
            ],
            "translation" : [
                -0.6401172876358032,
                0.3395749032497406,
                0.0026182946749031544
            ]
        },
        {
            "mesh" : 8,
            "name" : "Torso"
        }
    ],
    "scene" : 0,
    "scenes" : [
        {
            "name" : "Scene",
            "nodes" : [
                0,
                2,
                8,
                7,
                6,
                1,
                3,
                10,
                9
            ]
        }
    ]
}
